<svg width="1600" height="2400" viewBox="0 0 1600 2400" fill="none" xmlns="http://www.w3.org/2000/svg">
  <defs>
    <linearGradient id="base" x1="0" y1="0" x2="1" y2="1">
      <stop offset="0%" stop-color="#0a0a0f"/>
      <stop offset="100%" stop-color="#11131b"/>
    </linearGradient>
    <radialGradient id="glow" cx="0.7" cy="0.3" r="0.6">
      <stop offset="0%" stop-color="#2b2f3a" stop-opacity="0.6"/>
      <stop offset="100%" stop-color="#0a0a0f" stop-opacity="0"/>
    </radialGradient>
  </defs>
  <rect width="1600" height="2400" fill="url(#base)"/>
  <rect width="1600" height="2400" fill="url(#glow)"/>
  <g stroke="#232734" stroke-width="6" opacity="0.7">
    <path d="M140 420 H540 V740 H940"/>
    <path d="M260 920 H760 V1260 H1140"/>
    <path d="M180 1540 H640 V1860 H980"/>
    <path d="M860 260 H1220 V540 H1440"/>
    <path d="M920 1120 H1340 V1420 H1500"/>
  </g>
  <g stroke="#2f3546" stroke-width="3" opacity="0.8">
    <rect x="220" y="520" width="260" height="180" rx="18"/>
    <rect x="840" y="960" width="320" height="220" rx="20"/>
    <rect x="360" y="1600" width="280" height="200" rx="20"/>
    <rect x="1040" y="420" width="240" height="160" rx="16"/>
  </g>
  <g fill="#1b1f2b" opacity="0.9">
    <circle cx="280" cy="740" r="12"/>
    <circle cx="520" cy="620" r="10"/>
    <circle cx="980" cy="1320" r="12"/>
    <circle cx="1180" cy="640" r="10"/>
    <circle cx="620" cy="1840" r="10"/>
  </g>
</svg>
